<svg width="231" height="231" viewBox="0 0 231 231" fill="none" xmlns="http://www.w3.org/2000/svg">
<path d="M216.28 100.753C223.345 105.263 226.882 107.513 229.132 105.78C231.382 104.057 230.095 99.9724 227.521 91.8031L211.263 40.2125C208.77 32.3168 207.533 28.3741 204.726 25.5665C201.918 22.7589 197.975 21.5122 190.079 19.029L138.499 2.77137C130.33 0.196907 126.245 -1.09032 124.522 1.1598C122.789 3.40991 125.049 6.94726 129.549 14.0118C151.777 48.8684 181.434 78.5152 216.28 100.743V100.753Z" fill="black"/>
<path d="M14.0118 100.753C6.94726 105.263 3.40991 107.513 1.1598 105.78C-1.09032 104.057 0.196907 99.9724 2.77137 91.8031L19.029 40.2125C21.5122 32.3168 22.7589 28.3741 25.5665 25.5665C28.3741 22.7589 32.3168 21.5122 40.2125 19.029L91.7929 2.77137C99.9623 0.196907 104.047 -1.09032 105.77 1.1598C107.503 3.40991 105.243 6.94726 100.743 14.0118C78.5152 48.8684 48.8583 78.5152 14.0118 100.743V100.753Z" fill="black"/>
<path d="M14.0118 129.568C6.94726 125.058 3.40991 122.808 1.1598 124.541C-1.09032 126.264 0.196907 130.349 2.77137 138.518L19.029 190.108C21.5122 198.004 22.7589 201.947 25.5665 204.754C28.3741 207.562 32.3168 208.809 40.2125 211.292L91.8031 227.55C99.9724 230.124 104.057 231.411 105.78 229.161C107.513 226.911 105.253 223.374 100.753 216.309C78.5254 181.453 48.8684 151.806 14.022 129.578L14.0118 129.568Z" fill="black"/>
<path d="M216.281 129.568C223.345 125.058 226.882 122.808 229.133 124.541C231.383 126.264 230.095 130.349 227.521 138.518L211.263 190.108C208.77 198.004 207.534 201.947 204.726 204.754C201.918 207.562 197.976 208.809 190.08 211.292L138.489 227.55C130.32 230.124 126.235 231.411 124.512 229.161C122.779 226.911 125.039 223.374 129.54 216.309C151.767 181.453 181.424 151.806 216.27 129.578L216.281 129.568Z" fill="black"/>
</svg>
